<?xml version="1.0" encoding="UTF-8"?>
<svg width="209px" height="70px" viewBox="0 0 209 70" version="1.1" xmlns="http://www.w3.org/2000/svg" xmlns:xlink="http://www.w3.org/1999/xlink">
    <!-- Generator: Sketch 50.2 (55047) - http://www.bohemiancoding.com/sketch -->
    <title>Main logo on transparent background (for white background)</title>
    <desc>Created with Sketch.</desc>
    <defs></defs>
    <g id="Symbols" stroke="none" stroke-width="1" fill="none" fill-rule="evenodd">
        <g id="Main-logo-on-transparent-background-(for-white-background)">
            <g>
                <path d="M116.7638,59.2791 C123.1388,60.1761 127.0208,59.0081 130.0278,56.0041 C131.9158,54.1191 133.3508,51.9111 134.6178,49.5911 C139.7478,40.2031 152.0908,17.5221 152.0908,17.5221 L143.1988,17.5221 L133.9538,36.1021 L131.0688,17.5221 L121.6188,17.5221 L121.6188,17.9541 C121.6188,17.9541 124.8178,34.9641 126.4598,43.6811 C126.7048,44.9801 126.9578,48.3231 124.6078,50.4851 C123.2928,51.6941 121.3938,52.6991 118.1228,52.1641 L116.7638,59.2791 Z" id="Fill-1" fill="#061027"></path>
                <polygon id="Fill-3" fill="#061027" points="109.6796 17.5225 101.0836 37.0315 100.8506 37.0115 99.6866 18.0055 90.3246 18.0055 81.1986 37.0335 80.9656 36.9545 80.5746 17.5225 71.6146 17.5225 73.3976 48.6875 83.0936 48.6875 92.4876 28.3525 92.7086 28.3905 94.1976 48.6855 103.9566 48.6855 118.0726 17.5225"></polygon>
                <path d="M161.4988,48.6878 L152.0908,48.6878 C154.1868,38.1788 156.1888,28.0228 158.2838,17.5218 L165.5778,17.5218 L165.5778,23.2558 C166.5538,20.8868 167.8858,18.6808 170.1458,17.7128 C172.3628,16.7628 175.7898,16.8128 179.2838,17.8858 C177.9078,20.5508 176.8588,22.9218 175.3688,25.8068 C174.0248,25.5408 172.8158,25.2008 171.5848,25.0788 C168.8198,24.8038 166.8118,25.9068 165.8678,28.5288 C165.2088,30.3598 164.7988,32.2988 164.4008,34.2118 C163.4028,39.0048 162.4758,43.8098 161.4988,48.6878" id="Fill-5" fill="#061027"></path>
                <path d="M191.5775,24.9337 C192.9225,23.2987 195.3445,22.3947 197.1425,22.9577 C199.3355,23.6447 200.0555,26.0757 198.4975,27.7727 C197.9685,28.3487 197.2305,28.8257 196.4955,29.1017 C194.2325,29.9517 191.8905,29.9257 189.4265,29.5017 C189.8435,27.6947 190.5035,26.2387 191.5775,24.9337 L191.5775,24.9337 Z M203.6185,40.9407 C203.6185,40.9407 203.5395,40.9397 203.3035,40.9397 C199.7015,42.3217 195.7045,42.6837 192.9495,41.9027 C189.9055,41.0397 188.1495,38.3907 188.7025,35.3987 C197.7745,36.1617 201.6255,34.4347 203.6925,33.1987 C209.2925,29.8497 210.7165,20.8857 203.4095,18.2317 C196.9895,15.8997 188.0465,17.0087 183.8215,22.1267 C179.9715,26.7907 178.8415,31.9197 179.4315,37.6287 C179.8745,41.9237 182.8195,48.0807 192.4445,49.0417 C198.2635,49.6227 201.9885,48.1277 202.2595,48.0157 L203.6185,40.9407 Z" id="Fill-7" fill="#061027"></path>
                <path d="M36.0365,34.8397 L57.4305,34.8397 L45.8885,63.0327 C44.2905,66.9367 40.4905,69.4877 36.2715,69.4877 L14.8775,69.4877 L26.4195,41.2947 C28.0175,37.3907 31.8175,34.8397 36.0365,34.8397" id="Fill-9" fill="#94C5FF"></path>
                <path d="M57.4303,34.8412 L44.4763,51.3142 C42.5133,53.9292 39.5423,55.6292 36.0483,55.6292 L20.5513,55.6292 L26.4353,41.2872 C28.0353,37.3872 31.8343,34.8392 36.0503,34.8402 L57.4303,34.8412 Z" id="Fill-11" fill="#1A32AF"></path>
                <path d="M28.9444,17.5119 L50.3384,17.5119 L38.7964,45.7049 C37.1984,49.6089 33.3984,52.1599 29.1794,52.1599 L7.7854,52.1599 L19.3274,23.9669 C20.9254,20.0629 24.7254,17.5119 28.9444,17.5119" id="Fill-13" fill="#0092FF"></path>
                <path d="M50.3382,17.5134 L37.3842,33.9864 C35.4212,36.6014 32.4502,38.3014 28.9562,38.3014 L13.4592,38.3014 L19.3432,23.9594 C20.9432,20.0594 24.7422,17.5114 28.9582,17.5124 L50.3382,17.5134 Z" id="Fill-15" fill="#1A32AF"></path>
                <path d="M21.8522,0.1671 L43.2462,0.1671 L31.7042,28.3601 C30.1062,32.2641 26.3062,34.8151 22.0872,34.8151 L0.6932,34.8151 L12.2352,6.6221 C13.8332,2.7181 17.6332,0.1671 21.8522,0.1671" id="Fill-17" fill="#0055FF"></path>
            </g>
        </g>
    </g>
</svg>